HIERARCHY
ROOT RootJoint
{
    OFFSET   0.000000   0.000000   0.000000
    CHANNELS 6 Xposition Yposition Zposition Xrotation Yrotation Zrotation
    JOINT pelvis_lowerback
    {
        OFFSET   0.000000   0.093605   0.000000
        CHANNELS 3 Xrotation Yrotation Zrotation
        JOINT lowerback_torso
        {
            OFFSET   0.000000   0.100000   0.000000
            CHANNELS 3 Xrotation Yrotation Zrotation
            JOINT torso_head
            {
                OFFSET   0.000000   0.282350   0.000000
                CHANNELS 3 Xrotation Yrotation Zrotation
                End Site
                {
                    OFFSET   0.000000   0.192650   0.000000
                }
            }
            JOINT rTorso_Clavicle
            {
                OFFSET  -0.001000   0.157500   0.000000
                CHANNELS 3 Xrotation Yrotation Zrotation
                JOINT rShoulder
                {
                    OFFSET  -0.117647   0.000000   0.000000
                    CHANNELS 3 Xrotation Yrotation Zrotation
                    JOINT rElbow
                    {
                        OFFSET  -0.245000   0.000000   0.000000
                        CHANNELS 3 Xrotation Yrotation Zrotation
                        JOINT rWrist
                        {
                            OFFSET  -0.240000   0.000000   0.000000
                            CHANNELS 3 Xrotation Yrotation Zrotation
                            End Site
                            {
                                OFFSET  -0.116353  -0.002500   0.000000
                            }
                        }
                    }
                }
            }
            JOINT lTorso_Clavicle
            {
                OFFSET   0.001000   0.157500   0.000000
                CHANNELS 3 Xrotation Yrotation Zrotation
                JOINT lShoulder
                {
                    OFFSET   0.117647   0.000000   0.000000
                    CHANNELS 3 Xrotation Yrotation Zrotation
                    JOINT lElbow
                    {
                        OFFSET   0.245000   0.000000   0.000000
                        CHANNELS 3 Xrotation Yrotation Zrotation
                        JOINT lWrist
                        {
                            OFFSET   0.240000   0.000000   0.000000
                            CHANNELS 3 Xrotation Yrotation Zrotation
                            End Site
                            {
                                OFFSET   0.116353  -0.002500   0.000000
                            }
                        }
                    }
                }
            }
        }
    }
    JOINT rHip
    {
        OFFSET  -0.100000  -0.051395   0.000000
        CHANNELS 3 Xrotation Yrotation Zrotation
        JOINT rKnee
        {
            OFFSET   0.000000  -0.410000   0.000000
            CHANNELS 3 Xrotation Yrotation Zrotation
            JOINT rAnkle
            {
                OFFSET   0.000000  -0.390000   0.000000
                CHANNELS 3 Xrotation Yrotation Zrotation
                JOINT rToeJoint
                {
                    OFFSET   0.000000  -0.050000   0.130000
                    CHANNELS 3 Xrotation Yrotation Zrotation
                    End Site
                    {
                        OFFSET  -0.010000   0.002000   0.060000
                    }
                }
            }
        }
    }
    JOINT lHip
    {
        OFFSET   0.100000  -0.051395   0.000000
        CHANNELS 3 Xrotation Yrotation Zrotation
        JOINT lKnee
        {
            OFFSET   0.000000  -0.410000   0.000000
            CHANNELS 3 Xrotation Yrotation Zrotation
            JOINT lAnkle
            {
                OFFSET   0.000000  -0.390000   0.000000
                CHANNELS 3 Xrotation Yrotation Zrotation
                JOINT lToeJoint
                {
                    OFFSET   0.000000  -0.050000   0.130000
                    CHANNELS 3 Xrotation Yrotation Zrotation
                    End Site
                    {
                        OFFSET   0.010000   0.002000   0.060000
                    }
                }
            }
        }
    }
}
MOTION
Frames: 17
Frame Time:   0.008333
 -2.376719   0.925631   3.975860   0.000000   0.000000   0.000000   0.000000   0.000000   0.000000   0.000000   0.000000   0.000000   0.000000   0.000000   0.000000   0.000000   0.000000   0.000000   0.000000   0.000000   0.000000   0.000000   0.000000   0.000000   0.000000   0.000000   0.000000   0.000000   0.000000   0.000000   0.000000   0.000000   0.000000   0.000000   0.000000   0.000000   0.000000   0.000000   0.000000   0.000000   0.000000   0.000000   0.000000   0.000000   0.000000   0.000000   0.000000   0.000000   0.000000   0.000000   0.000000   0.000000   0.000000   0.000000   0.000000   0.000000   0.000000   0.000000   0.000000   0.000000   0.000000   0.000000   0.000000
 -2.376604   0.926092   3.974622  -0.018918  -0.058138   0.033019   0.259469   0.103216  -0.002804   0.087549  -0.122138  -0.031355  -0.286535   0.144720  -0.020607   0.233592  -0.258533   0.129428   1.015435   0.263849   2.150488   0.019714   0.982930  -0.013681   0.368870  -0.488011  -2.415605   0.215973   0.231581  -0.316225   1.245524  -0.016592  -2.021951   0.017013  -0.828373   0.013041   0.356802   0.250353   2.601757  -0.807379   0.044178  -0.112311   2.193661   0.001526  -0.000316  -1.559184  -0.359988  -0.133086  -0.055526  -0.000103   0.000181  -0.786910  -0.014730   0.033190   2.112128  -0.001240  -0.001320  -1.456865   0.191789   0.115462   0.312594  -0.000491   0.000324
 -2.376503   0.926854   3.973342  -0.147017  -0.143291   0.076506   0.587705   0.211393  -0.011997   0.287603  -0.230562  -0.076946  -0.533944   0.282851  -0.037777   0.464935  -0.434215   0.918545   2.000590   0.632991   4.828806   0.045537   1.946476  -0.024738   0.779999  -0.667899  -4.130724   0.435550   0.397054  -1.315527   2.466139  -0.126401  -4.601240   0.039264  -1.632555   0.023499   0.765221   0.280102   4.506094  -1.526037   0.082574  -0.292692   4.483896   0.003929  -0.001480  -3.008399  -0.698305  -0.267709  -0.139777  -0.000285   0.000430  -1.497816  -0.028615   0.125982   4.317618  -0.003742  -0.002760  -2.809494   0.371159   0.228861   0.575183  -0.000960   0.000451
 -2.376461   0.927527   3.972120  -0.286487  -0.243248   0.125751   0.915741   0.318620  -0.035685   0.507674  -0.324607  -0.142750  -0.755584   0.411611  -0.048059   0.681372  -0.534910   2.122292   2.945357   1.093751   7.850886   0.071032   2.863112  -0.032607   1.184994  -0.698183  -5.088820   0.642178   0.496124  -2.767512   3.607652  -0.325263  -7.427565   0.060945  -2.397179   0.030757   1.169695   0.193082   5.568113  -2.183023   0.119054  -0.520246   6.655380   0.006401  -0.002987  -4.359665  -1.012017  -0.401943  -0.215695  -0.000438   0.000600  -2.162436  -0.042457   0.275477   6.406121  -0.006843  -0.003781  -4.070272   0.536925   0.339201   0.816920  -0.001417   0.000493
 -2.376500   0.927835   3.970999  -0.413437  -0.350083   0.178245   1.231863   0.423184  -0.078551   0.719979  -0.407206  -0.230770  -0.960697   0.531616  -0.054088   0.881178  -0.580659   3.567372   3.847773   1.637917  11.103578   0.093219   3.730703  -0.037838   1.580250  -0.635593  -5.489258   0.832459   0.545553  -4.489422   4.658157  -0.599677 -10.330677   0.079407  -3.122410   0.035354   1.565639   0.021995   5.995214  -2.792365   0.155231  -0.780677   8.685611   0.008581  -0.004526  -5.622299  -1.302506  -0.534737  -0.292013  -0.000582   0.000731  -2.794203  -0.057493   0.475153   8.354989  -0.010049  -0.004265  -5.248062   0.690116   0.446098   1.031617  -0.001806   0.000491
 -2.376593   0.927565   3.970010  -0.523375  -0.457991   0.229651   1.532121   0.524533  -0.134964   0.917539  -0.479983  -0.326660  -1.151457   0.643466  -0.062415   1.064620  -0.588375   5.175724   4.669933   2.232989  14.388197   0.110433   4.550171  -0.040713   1.964966  -0.503254  -5.450982   1.004873   0.561769  -6.354399   5.619995  -0.933451 -13.221798   0.093580  -3.808336   0.037864   1.950374  -0.209177   5.989245  -3.357796   0.191815  -1.064479  10.580762   0.010393  -0.005925  -6.802422  -1.571267  -0.665158  -0.368672  -0.000713   0.000826  -3.395689  -0.074933   0.716326  10.170149  -0.012977  -0.004256  -6.348678   0.831697   0.549292   1.221337  -0.002100   0.000471
 -2.376709   0.926558   3.969168  -0.616847  -0.563875   0.277932   1.814297   0.622115  -0.197524   1.098864  -0.544655  -0.421579  -1.328491   0.747845  -0.073371   1.232604  -0.574797   6.869883   5.400257   2.850947  17.588089   0.122208   5.321610  -0.041661   2.335949  -0.324249  -5.105101   1.160054   0.559897  -8.275284   6.497281  -1.308998 -16.044400   0.103267  -4.454758   0.038755   2.320961  -0.478475   5.699480  -3.880995   0.229277  -1.366032  12.350909   0.011841  -0.007112  -7.905308  -1.819846  -0.792511  -0.444202  -0.000826   0.000888  -3.966775  -0.095404   0.988754  11.861463  -0.015405  -0.003877  -7.377067   0.962481   0.648552   1.389709  -0.002298   0.000445
 -2.376868   0.924159   3.967786  -0.556405  -0.698673   0.307230   2.113833   0.722698  -0.250821   1.188231  -0.585715  -0.507893  -1.656888   0.724476  -0.164732   1.556061  -0.395198   7.989045   6.209210   3.504870  20.619854   0.127360   6.098292  -0.045009   2.667421  -0.058425  -3.944327   1.326952   0.532110  -9.462510   7.211481  -1.713804 -18.894241   0.109800  -5.170762   0.039974   2.611105  -0.828245   4.521934  -4.713637   0.089766  -1.609801  14.326386   0.011875  -0.011946  -8.977313  -2.285077  -0.814888  -0.433092  -0.000638   0.000635  -4.724866  -0.052353   1.257753  13.332652  -0.016251  -0.002923  -8.444942   1.129513   0.816755   1.539530  -0.002431   0.000526
 -2.377044   0.920598   3.966284  -0.487878  -0.813744   0.329739   2.446447   0.816015  -0.304114   1.286623  -0.619327  -0.588668  -1.970986   0.697409  -0.258665   1.839241  -0.184285   8.854781   6.925812   4.171630  23.323115   0.126365   6.833147  -0.046760   2.996597   0.259261  -2.886515   1.467907   0.479881 -10.374881   7.854301  -2.130907 -21.422682   0.110166  -5.847414   0.040147   2.886828  -1.229653   3.440056  -5.526366  -0.052968  -1.813926  16.182496   0.010951  -0.015141  -9.976159  -2.722651  -0.845054  -0.412977  -0.000474   0.000380  -5.487762  -0.014646   1.503548  14.654231  -0.016118  -0.001962  -9.445651   1.282837   0.977043   1.666685  -0.002400   0.000573
 -2.377217   0.915994   3.964787  -0.419687  -0.909414   0.348827   2.789342   0.906191  -0.356740   1.397271  -0.646947  -0.663734  -2.258312   0.672331  -0.348412   2.087570   0.028724   9.539419   7.560889   4.827016  25.751930   0.121500   7.523264  -0.047048   3.310759   0.586246  -2.043817   1.589131   0.421203 -11.095875   8.435063  -2.542782 -23.684335   0.106588  -6.480504   0.039322   3.147067  -1.626188   2.581588  -6.291298  -0.185599  -1.986623  17.908741   0.009561  -0.016784 -10.909127  -3.130040  -0.880865  -0.392976  -0.000348   0.000186  -6.237855   0.017461   1.721843  15.863063  -0.015365  -0.001084 -10.381079   1.422755   1.129018   1.782641  -0.002292   0.000601
 -2.377382   0.910429   3.963353  -0.353366  -0.988740   0.365520   3.130612   0.994450  -0.407293   1.515171  -0.668720  -0.733143  -2.521344   0.649447  -0.433082   2.310023   0.230001  10.089070   8.127353   5.456989  27.950317   0.114319   8.167526  -0.046151   3.608484   0.897977  -1.379703   1.697839   0.368665 -11.675921   8.963157  -2.937847 -25.725039   0.100629  -7.069448   0.037689   3.391300  -1.994436   1.907626  -7.003981  -0.308503  -2.132594  19.515771   0.008002  -0.017307 -11.780714  -3.509131  -0.920908  -0.374097  -0.000252   0.000046  -6.966275   0.045236   1.912534  16.975847  -0.014231  -0.000341 -11.255037   1.550504   1.272827   1.889245  -0.002138   0.000612
 -2.377615   0.908694   3.962139  -0.519440  -0.844210   0.499737   3.663782   0.998895  -0.560001   1.735235  -0.748240  -0.836122  -2.765374   0.625592  -0.516828   2.506181   0.443166  10.838656   8.623124   6.077476  30.059269   0.107647   8.759537  -0.044866   3.886971   1.119572  -0.894254   1.762282   0.256728 -12.404241   9.420531  -3.362069 -27.646192   0.095196  -7.619138   0.035672   3.620993  -2.294447   1.453431  -7.743012  -0.252880  -2.268382  21.281810   0.006353  -0.011817 -12.671236  -3.656897  -0.870983  -0.357893  -0.000210   0.000037  -7.838819   0.144803   1.822293  18.822255  -0.011063   0.004465 -11.635977   1.702045   1.325870   2.069742  -0.001849   0.001144
 -2.377889   0.907156   3.961514  -0.647652  -0.742815   0.651945   4.051980   1.047100  -0.705244   1.939533  -0.798759  -0.947309  -2.969107   0.605927  -0.600679   2.709089   0.605420  11.428595   9.078367   6.656390  32.030847   0.099909   9.316236  -0.042599   4.154439   1.370184  -0.287810   1.846929   0.201740 -12.985398   9.850484  -3.746482 -29.448004   0.088625  -8.133921   0.032816   3.840972  -2.621386   0.889307  -8.338536  -0.292619  -2.437784  22.736612   0.004837  -0.009475 -13.442017  -3.955188  -0.932977  -0.319327  -0.000148  -0.000068  -8.492625   0.215956   1.702725  20.296725  -0.008531   0.006157 -12.218140   1.814489   1.432901   2.203150  -0.001621   0.001263
 -2.378329   0.905939   3.960722  -0.569645  -0.636168   0.710529   4.421820   1.102455  -0.830718   1.928264  -0.822944  -0.956001  -3.199746   0.559498  -0.704316   2.860406   0.646891  11.705721   9.442158   7.143738  33.585602   0.090614   9.896651  -0.039800   4.338240   1.753852   0.800634   1.946094   0.232738 -13.189756  10.173609  -4.108174 -31.001231   0.082413  -8.756574   0.030236   4.015275  -2.978594  -0.177415  -8.949379  -0.365433  -2.493170  23.743210   0.003545  -0.007588 -13.951569  -4.237776  -1.021382  -0.284261  -0.000098  -0.000140  -9.232707   0.252771   1.685812  21.485468  -0.006660   0.006764 -12.715097   1.896841   1.590839   2.287655  -0.001428   0.001196
 -2.378839   0.904911   3.959824  -0.406389  -0.555242   0.746564   4.775699   1.167805  -0.952186   1.884474  -0.833702  -0.952729  -3.425436   0.516695  -0.798714   2.984482   0.684783  11.743055   9.772883   7.586449  34.877981   0.080091  10.436578  -0.036905   4.503527   2.132074   1.661017   2.032277   0.265337 -13.157995  10.470988  -4.431007 -32.299478   0.074236  -9.337141   0.027675   4.173027  -3.344454  -1.049487  -9.568355  -0.442936  -2.519986  24.559271   0.002511  -0.006214 -14.376035  -4.504587  -1.115557  -0.119872   0.000011  -0.000527  -9.959729   0.276412   1.693255  22.473184  -0.005269   0.006585 -13.214597   1.969509   1.745843   2.367202  -0.001265   0.001099
 -2.379392   0.904022   3.958858  -0.196934  -0.491694   0.767386   5.125976   1.233959  -1.066521   1.842118  -0.837666  -0.948463  -3.636497   0.477337  -0.886488   3.086465   0.722515  11.614886  10.075217   7.990532  35.964574   0.069522  10.937002  -0.034038   4.659182   2.466084   2.267286   2.107488   0.295711 -12.966524  10.746279  -4.719406 -33.394326   0.065424  -9.873856   0.025267   4.320677  -3.666408  -1.676477 -10.181549  -0.520564  -2.528000  25.255908   0.001702  -0.005151 -14.788242  -4.754190  -1.204056   0.036032   0.000072  -0.000812 -10.660174   0.291581   1.716580  23.313169  -0.004217   0.006067 -13.706457   2.034532   1.894589   2.437100  -0.001115   0.000985
 -2.379973   0.903239   3.957859   0.040801  -0.440923   0.777846   5.475976   1.297523  -1.175175   1.811150  -0.838393  -0.945347  -3.831188   0.440967  -0.968610   3.172485   0.757319  11.374437  10.353909   8.358454  36.888692   0.059576  11.400059  -0.031252   4.807759   2.751590   2.672251   2.174465   0.325213 -12.668674  11.002294  -4.977391 -34.328779   0.056806 -10.369722   0.023048   4.460891  -3.938656  -2.106082 -10.782484  -0.596861  -2.523111  25.862350   0.001081  -0.004305 -15.185036  -4.987442  -1.287356   0.177271   0.000100  -0.000993 -11.331770   0.300697   1.750223  24.039076  -0.003412   0.005419 -14.183373   2.093023   2.036297   2.499145  -0.000981   0.000869
